<?xml version="1.0" encoding="UTF-8" standalone="no"?>
<!-- Created with Inkscape (http://www.inkscape.org/) -->

<svg
   width="751.0799mm"
   height="680.979mm"
   viewBox="0 0 751.0799 680.979"
   version="1.1"
   id="svg5"
   inkscape:version="1.1.2 (b8e25be8, 2022-02-05)"
   sodipodi:docname="attach_usb.svg"
   xmlns:inkscape="http://www.inkscape.org/namespaces/inkscape"
   xmlns:sodipodi="http://sodipodi.sourceforge.net/DTD/sodipodi-0.dtd"
   xmlns:xlink="http://www.w3.org/1999/xlink"
   xmlns="http://www.w3.org/2000/svg"
   xmlns:svg="http://www.w3.org/2000/svg">
  <sodipodi:namedview
     id="namedview7"
     pagecolor="#ffffff"
     bordercolor="#666666"
     borderopacity="1.0"
     inkscape:pageshadow="2"
     inkscape:pageopacity="0.0"
     inkscape:pagecheckerboard="0"
     inkscape:document-units="mm"
     showgrid="false"
     inkscape:zoom="0.11322959"
     inkscape:cx="2141.6663"
     inkscape:cy="-353.26455"
     inkscape:current-layer="layer1"
     inkscape:snap-global="false"
     inkscape:object-paths="true"
     inkscape:snap-intersection-paths="true"
     inkscape:snap-smooth-nodes="true"
     inkscape:snap-midpoints="true"
     showborder="true"
     showguides="true"
     inkscape:guide-bbox="true"
     fit-margin-top="0"
     fit-margin-left="0"
     fit-margin-right="0"
     fit-margin-bottom="0" />
  <defs
     id="defs2">
    <linearGradient
       inkscape:collect="always"
       id="linearGradient61032">
      <stop
         style="stop-color:#ffffff;stop-opacity:1;"
         offset="0"
         id="stop61028" />
      <stop
         style="stop-color:#ffffff;stop-opacity:0;"
         offset="1"
         id="stop61030" />
    </linearGradient>
    <linearGradient
       id="Block_Grey"
       gradientTransform="matrix(0.01852198,0,0,0.01852198,0,1.0913713e-5)"
       inkscape:swatch="solid">
      <stop
         style="stop-color:#e5e5ea;stop-opacity:1;"
         offset="0"
         id="stop4937" />
    </linearGradient>
    <linearGradient
       id="Highlight_Grey"
       inkscape:swatch="solid">
      <stop
         style="stop-color:#5e5e61;stop-opacity:1;"
         offset="0"
         id="stop4913" />
    </linearGradient>
    <linearGradient
       id="Block_Purple"
       inkscape:swatch="solid">
      <stop
         style="stop-color:#ececff;stop-opacity:1;"
         offset="0"
         id="stop4897" />
    </linearGradient>
    <linearGradient
       id="Highlight_Purple"
       gradientTransform="scale(0.26458333)"
       inkscape:swatch="solid">
      <stop
         style="stop-color:#6161ff;stop-opacity:1;"
         offset="0"
         id="stop4813" />
    </linearGradient>
    <linearGradient
       id="Block_Blue"
       gradientTransform="scale(0.26458333)"
       inkscape:swatch="solid">
      <stop
         style="stop-color:#e5efff;stop-opacity:1;"
         offset="0"
         id="stop4887" />
    </linearGradient>
    <linearGradient
       id="Highlight_Blue"
       x1="0"
       y1="0"
       x2="1"
       y2="0"
       gradientUnits="objectBoundingBox"
       spreadMethod="pad"
       inkscape:swatch="solid">
      <stop
         style="stop-color:#0088f0;stop-opacity:1;"
         offset="0"
         id="stop4374" />
    </linearGradient>
    <linearGradient
       id="Highlight_Green"
       inkscape:swatch="solid">
      <stop
         style="stop-color:#009e9b;stop-opacity:1;"
         offset="0"
         id="stop4586" />
    </linearGradient>
    <linearGradient
       id="Block_Green"
       inkscape:swatch="solid">
      <stop
         style="stop-color:#dff6f3;stop-opacity:0.69999999;"
         offset="0"
         id="stop4879" />
    </linearGradient>
    <linearGradient
       id="Block_Green-9"
       inkscape:swatch="solid">
      <stop
         style="stop-color:#dff6f3;stop-opacity:1;"
         offset="0"
         id="stop4879-3" />
    </linearGradient>
    <linearGradient
       inkscape:collect="always"
       xlink:href="#linearGradient61032"
       id="linearGradient30601"
       gradientUnits="userSpaceOnUse"
       gradientTransform="matrix(0.91742996,0,0,0.91317743,729.844,-71.495136)"
       x1="6.8939735e-06"
       y1="27.19145"
       x2="6.8939735e-06"
       y2="-31.674147" />
  </defs>
  <g
     inkscape:label="Layer 1"
     inkscape:groupmode="layer"
     id="layer1"
     transform="translate(-380.38177,668.55612)">
    <g
       id="g47400">
      <path
         id="rect9277"
         style="fill:#ebe9ee;fill-opacity:1;stroke:none;stroke-width:1.51181"
         d="M 1688.1035,-1788.4355 V -69.748047 H 4010.9688 V -1788.4355 Z m 183.6172,38.6699 h 55.2715 c 22.7004,0 40.9785,18.2764 40.9785,40.9765 v 0.5489 c 0,22.7003 -18.2781,40.9746 -40.9785,40.9746 h -55.2715 c -22.7003,0 -40.9746,-18.2743 -40.9746,-40.9746 v -0.5489 c 0,-22.7001 18.2743,-40.9765 40.9746,-40.9765 z m 1900.3613,0 h 55.2715 c 22.7002,0 40.9746,18.2764 40.9746,40.9765 v 0.5489 c 0,22.7003 -18.2744,40.9746 -40.9746,40.9746 h -55.2715 c -22.7003,0 -40.9746,-18.2743 -40.9746,-40.9746 v -0.5489 c 0,-22.7001 18.2743,-40.9765 40.9746,-40.9765 z"
         transform="scale(0.26458333)" />
      <g
         id="g38024">
        <rect
           style="fill:#9d9d97;fill-opacity:1;stroke:none;stroke-width:1;stroke-miterlimit:4;stroke-dasharray:none;stroke-opacity:1"
           id="rect31100"
           width="58.529808"
           height="9.9540482"
           x="724.67505"
           y="-402.34604" />
        <path
           id="rect26925"
           style="fill:#2b9f61;stroke-width:3.77953"
           d="m 1718.2422,-1530.7129 c -4.2491,0 -7.6699,3.4209 -7.6699,7.6699 V -69.748047 H 3988.502 V -1523.043 c 0,-4.249 -3.421,-7.6699 -7.67,-7.6699 h -944.5879 c -3.0419,14.4508 -15.4337,46.1429 -62.5644,43.3516 l -124.1426,-0.4746 -124.1426,0.4746 c -47.1306,2.7913 -59.5245,-28.9009 -62.5664,-43.3516 z"
           transform="scale(0.26458333)" />
        <g
           id="g13362"
           style="stroke-width:0.560233"
           transform="matrix(1.7849755,0,0,1.7849755,-909.1093,305.82223)" />
        <g
           id="g13180"
           style="stroke-width:0.560233"
           transform="matrix(1.7849755,0,0,1.7849755,-909.1093,305.82223)">
          <g
             id="g13143"
             style="stroke-width:0.560233">
            <g
               id="g30292"
               transform="translate(-990.15693)"
               style="fill:#ffffff;fill-opacity:1;stroke-width:0.560233">
              <path
                 style="fill:#ffffff;fill-opacity:1;stroke-width:0.560233"
                 d="m 1950.8789,-379.20955 c -0.5296,-0.39075 -1.3429,-0.86781 -1.8072,-1.06014 -1.3296,-0.55075 -1.3174,-1.09999 0.04,-1.79241 2.4371,-1.24334 8.7746,-1.96694 9.6407,-1.10076 0.508,0.50791 0.455,3.32715 -0.071,3.7634 -0.3449,0.28628 -4.4364,0.85849 -6.3805,0.89235 -0.2526,0.004 -0.8925,-0.3117 -1.4222,-0.70244 z"
                 id="path28036" />
              <path
                 style="fill:#ffffff;fill-opacity:1;stroke-width:0.560233"
                 d="m 1951.5795,-355.72876 c -2.7413,-0.50434 -5.7979,-2.42732 -7.0654,-4.44508 -0.8263,-1.31537 -1.9372,-4.25485 -1.9378,-5.1273 -3e-4,-0.62741 0.083,-0.64727 2.1345,-0.50548 l 2.1349,0.14759 0.8069,1.68619 c 1.2981,2.71272 4.0063,4.0233 7.6341,3.69434 3.468,-0.31447 5.4725,-2.26182 7.7956,-7.57358 2.7493,-6.28634 6.6283,-12.15244 9.2107,-13.92918 2.2377,-1.53964 4.0042,-2.06699 7.0261,-2.09759 3.1231,-0.0316 5.4429,0.57793 7.4899,1.96798 1.6628,1.12918 3.4793,3.27989 3.7542,4.44487 0.2069,0.87692 0.1997,0.87405 -0.7407,-0.29517 -1.1838,-1.47198 -3.019,-2.7313 -4.342,-2.9795 -1.7383,-0.32609 -4.4584,0.0108 -5.3437,0.66188 -0.446,0.32799 -1.7884,0.89222 -2.9831,1.25386 -3.8254,1.15798 -5.5148,3.33168 -10.2323,13.1659 -1.804,3.76044 -2.1851,4.33172 -4.2345,6.34624 -2.8872,2.83807 -4.2105,3.49025 -7.4384,3.66587 -1.3685,0.0745 -3.0196,0.0376 -3.669,-0.0818 z"
                 id="path27994" />
              <path
                 style="fill:#ffffff;fill-opacity:1;stroke-width:0.560233"
                 d="m 1975.1935,-355.27918 c -0.4507,-0.33914 -0.5836,-0.76722 -0.5617,-1.81001 0.016,-0.7512 0.1865,-1.52377 0.3796,-1.71681 0.193,-0.19305 1.645,-0.43793 3.2266,-0.54419 4.5504,-0.30572 7.4539,-2.08523 8.3473,-5.1159 0.3128,-1.06139 0.7641,-1.70075 1.8312,-2.59442 1.7964,-1.50441 2.6066,-3.09263 2.7987,-5.48647 0.2178,-2.71325 0.714,-1.58795 0.8873,2.0125 0.3202,6.64796 -2.6573,12.44611 -7.5467,14.69633 -1.4565,0.67032 -2.1732,0.79228 -5.2299,0.88997 -2.826,0.0903 -3.6614,0.0234 -4.1324,-0.331 z"
                 id="path27992" />
              <path
                 style="fill:#ffffff;fill-opacity:1;stroke-width:0.560233"
                 d="m 2044.0453,-327.06495 c -0.9626,-1.01201 -1.2034,-1.95309 -0.8872,-3.46674 0.4044,-1.93552 2.1392,-1.68222 2.1392,0.31234 0,1.35761 0.4975,1.53155 1.1097,0.38796 0.886,-1.65526 1.7146,-2.32532 2.8752,-2.32532 1.931,0 3.1458,2.07088 2.678,4.56485 -0.2277,1.21353 -0.5386,1.45805 -1.5357,1.20778 -0.6167,-0.15476 -0.7341,-0.34756 -0.6913,-1.1347 0.089,-1.62999 0.01,-1.98136 -0.4661,-1.98136 -0.2518,0 -0.6469,0.45263 -0.878,1.00584 -0.9146,2.18889 -2.9761,2.86723 -4.3438,1.42935 z"
                 id="path27908" />
              <path
                 style="fill:#ffffff;fill-opacity:1;stroke-width:0.560233"
                 d="m 2043.3492,-318.40153 c -0.091,-0.23619 -0.1211,-0.73796 -0.068,-1.11504 0.083,-0.58927 0.2898,-0.69808 1.4677,-0.77429 1.2163,-0.0787 1.3872,-0.17619 1.5192,-0.86681 0.2198,-1.14958 -0.046,-1.55349 -1.0221,-1.55349 -1.3347,0 -2.0152,-0.49125 -2.0152,-1.45468 0,-0.49692 0.1918,-0.91718 0.4669,-1.02272 0.2568,-0.0986 2.1001,-0.17917 4.0963,-0.17917 3.9023,0 4.4334,0.19018 4.2409,1.51876 -0.08,0.55163 -0.3748,0.71884 -1.7199,0.97556 -1.5996,0.30528 -1.6235,0.32503 -1.6235,1.34294 0,1.01298 0.026,1.03495 1.3225,1.1272 1.6114,0.11465 2.1296,0.50181 2.0131,1.5041 l -0.089,0.76321 -4.2123,0.0819 c -3.4676,0.0675 -4.2416,0.006 -4.3772,-0.3475 z"
                 id="path27902" />
              <path
                 style="fill:#ffffff;fill-opacity:1;stroke-width:0.560233"
                 d="m 1944.0087,-318.87244 -0.8841,-0.88407 0.095,-11.9251 c 0.084,-10.5199 0.1442,-11.20995 0.1649,-11.85295 l 0.099,-3.0784 c 0.041,-1.26697 -0.1843,-2.16028 0.4246,-2.66563 0.7023,-0.58285 2.6616,-0.51202 3.3616,0.12152 0.5714,0.51705 0.6141,0.91946 0.6889,6.48819 l 0.08,5.93694 21.4635,0.14759 c 24.5927,0.1691 22.5633,-0.0897 22.4587,2.86393 -0.1001,2.8234 1.9183,2.57676 -22.4587,2.74438 l -21.4635,0.14758 -0.1475,6.05108 c -0.081,3.32809 -0.2551,6.2171 -0.3864,6.42004 -0.1314,0.20293 -0.7725,0.36896 -1.4248,0.36896 -0.9238,0 -1.3815,-0.19547 -2.0701,-0.88406 z"
                 id="path27900" />
              <path
                 id="path27884"
                 style="fill:#ffffff;fill-opacity:1;stroke-width:2.11742"
                 d="m 4000.8906,-1198.498 c -9.7387,0 -15.3273,8.9023 -11.4355,18.2168 1.1652,2.7883 2.9541,4.6934 5.4082,5.7597 4.6839,2.0351 6.7535,2.0528 11.4375,0.096 4.4557,-1.8617 7.291,-6.6888 7.291,-12.416 0,-3.143 -0.8653,-4.9353 -3.793,-7.8633 -3.2107,-3.2105 -4.5795,-3.7929 -8.9082,-3.7929 z m -0.2773,8.4882 a 4.5430976,4.1645059 0 0 1 4.5449,4.1641 4.5430976,4.1645059 0 0 1 -4.5449,4.166 4.5430976,4.1645059 0 0 1 -4.543,-4.166 4.5430976,4.1645059 0 0 1 4.543,-4.1641 z"
                 transform="matrix(0.26458333,0,0,0.26458333,990.15693,0)" />
              <path
                 style="fill:#ffffff;fill-opacity:1;stroke-width:0.560233"
                 d="m 2055.7246,-303.96301 c -0.8149,-0.57075 -1.2657,-1.88485 -0.9445,-2.75306 0.2994,-0.80946 0.9845,-0.56146 1.5429,0.55851 0.4586,0.91982 1.4855,0.9519 1.6135,0.0504 0.067,-0.47462 -0.1042,-0.73912 -0.6025,-0.92856 -0.3832,-0.1457 -0.8344,-0.44478 -1.0026,-0.66462 -0.3996,-0.52217 -0.493,-7.21587 -0.1107,-7.93031 0.1966,-0.36731 0.1962,-0.61183 0,-0.7338 -0.3754,-0.23202 -0.3784,-2.21863 0,-2.80464 0.2257,-0.35339 0.091,-0.47267 -0.6686,-0.59091 -0.8079,-0.1258 -0.9392,-0.25935 -0.8701,-0.88552 0.045,-0.40556 0.076,-1.10266 0.069,-1.54911 -0.011,-0.70878 0.1007,-0.81173 0.878,-0.81173 0.8735,0 1.178,-0.37765 0.595,-0.73793 -0.4046,-0.25007 -0.3726,-1.72312 0.046,-2.14227 0.2588,-0.25881 0.2532,-0.44836 -0.023,-0.78143 -0.2038,-0.24555 -0.3288,-1.02694 -0.2832,-1.76944 0.057,-0.93278 -0.07,-1.49741 -0.4266,-1.89148 -0.2881,-0.31832 -0.4277,-0.77216 -0.3221,-1.04723 0.2206,-0.57494 0.1182,-0.54611 2.284,-0.64304 1.884,-0.0843 2.3793,0.32236 1.706,1.40052 -0.2671,0.42782 -0.2738,0.67664 -0.026,0.97514 0.2341,0.28202 0.2421,0.56978 0.027,0.97117 -0.1679,0.31373 -0.2169,0.65875 -0.109,0.76672 0.108,0.10797 0.2138,1.91298 0.2352,4.01113 0.032,3.10694 -0.042,3.84569 -0.3945,3.9811 -0.3725,0.14296 -0.3656,0.24106 0.05,0.69991 0.2656,0.2935 0.483,0.68455 0.483,0.86898 0,0.18444 0.2656,0.47752 0.5903,0.65129 0.3247,0.17377 0.5904,0.50584 0.5904,0.73793 0,0.2321 -0.2657,0.56417 -0.5904,0.73794 -0.3247,0.17377 -0.5903,0.56909 -0.5903,0.87849 0,0.3094 -0.1332,0.64485 -0.296,0.74546 -0.1965,0.12145 -0.1919,0.37733 0.014,0.76146 0.3894,0.72753 0.139,1.15128 -0.6944,1.17539 l -0.6467,0.0187 0.6738,0.27053 c 0.5066,0.20339 0.6754,0.51002 0.6805,1.23578 0,0.53089 0.067,1.82864 0.1414,2.88389 0.2096,2.98754 0.168,3.31352 -0.5154,4.04105 -0.7449,0.79285 -2.1555,0.90376 -3.098,0.24359 z"
                 id="path27840" />
              <path
                 id="path27836"
                 style="fill:#ffffff;fill-opacity:1;stroke-width:2.11742"
                 d="m 4009.8438,-1171.6445 c -1.527,0.019 -3.7206,0.5876 -6.9141,1.6718 -4.735,1.6075 -5.482,1.6006 -9.0567,-0.096 -4.625,-2.1947 -9.1853,-0.891 -12.0214,3.4375 -2.0954,3.1978 -2.3745,16.1275 -0.3907,18.1114 0.9071,0.9068 6.1201,1.3398 16.1563,1.3398 h 14.8164 l 0.7031,-2.8047 c 0.9509,-3.7885 -1.2411,-6.1211 -5.7519,-6.1211 -6.5001,0 -6.0208,-4.6762 0.6289,-6.1367 4.2228,-0.9275 5.9885,-3.2286 5.123,-6.6777 -0.4681,-1.8651 -1.3297,-2.7495 -3.2929,-2.7246 z m -19.8184,9.0468 a 2.986097,3.3021105 0 0 1 2.9863,3.3028 2.986097,3.3021105 0 0 1 -2.9863,3.3008 2.986097,3.3021105 0 0 1 -2.9863,-3.3008 2.986097,3.3021105 0 0 1 2.9863,-3.3028 z"
                 transform="matrix(0.26458333,0,0,0.26458333,990.15693,0)" />
              <path
                 style="fill:#ffffff;fill-opacity:1;stroke-width:0.560233"
                 d="m 2039.4636,-298.45271 c -0.6376,-0.0734 -0.9408,-0.24753 -0.9408,-0.81173 0,-0.71662 1.1521,-0.74883 1.1521,-0.74883 0,0 11.8616,-0.0185 15.6992,-0.004 6.1287,0.0233 7.0264,-0.0323 7.3794,-0.45764 0.3313,-0.39925 0.3865,-3.57153 0.3143,-18.07457 -0.048,-9.67468 -0.1893,-17.69201 -0.3136,-17.8163 -0.1243,-0.12429 -5.1988,-0.19113 -11.2766,-0.14854 l -11.0506,0.0774 -0.071,11.21661 -0.3211,26.44132 c -0.1359,0.084 -1.2482,0.11362 -1.3798,-0.29449 l -0.1442,-0.44719 v -37.61134 l 0.7777,-0.61178 c 0.7567,-0.59534 1.0891,-0.61177 12.3807,-0.61177 h 11.6032 l 0.767,0.66414 0.7671,0.66415 0.061,18.66004 0.061,18.66004 -0.6727,0.67387 -0.6727,0.67387 h -10.1012 c -5.5556,0 -13.5698,-0.042 -14.0162,-0.0934 z"
                 id="path27834" />
              <path
                 style="fill:#ffffff;fill-opacity:1;stroke-width:0.560233"
                 d="m 1944.1264,-283.9002 -0.6641,-0.47181 v -11.93527 -11.93526 l 0.9938,-1.30207 c 0.5467,-0.71613 1.0769,-1.63243 1.1782,-2.03621 0.221,-0.88065 0.9096,-1.20366 1.6833,-0.78961 0.5409,0.28952 0.5689,0.82019 0.6427,12.17488 l 0.077,11.87216 h 8.5601 8.56 l 0.1476,-8.18106 c 0.1672,-9.26776 0.155,-9.2208 2.3968,-9.2208 1.8898,0 2.3699,0.8043 2.2634,3.79154 0,0 0.063,4.96209 0.063,10.07019 0,3.26167 0.024,3.38704 0.6641,3.54355 0.3653,0.0892 4.317,0.12498 8.7815,0.0794 l 8.1173,-0.0828 0.1476,-11.89173 c 0.1634,-13.16683 0.04,-12.44704 2.14,-12.45562 0.7179,-0.003 1.3143,0.20293 1.6972,0.58583 0.5728,0.57281 0.5904,0.98391 0.5904,13.84049 0,12.60553 -0.027,13.28403 -0.5642,13.94698 l -0.5642,0.69684 h -9.405 c 0,0 -15.1851,0.0118 -25.2185,0.0861 -10.2669,0.0761 -11.7011,0.031 -12.2877,-0.38571 z"
                 id="path27814" />
              <path
                 style="fill:#ffffff;fill-opacity:1;stroke-width:0.560233"
                 d="m 1944.1264,-249.40636 c -0.5761,-0.2354 -0.4332,-2.88003 0.097,-3.49 l 0.39,-0.44884 c 0.262,-0.30152 1.3203,-0.46168 11.0988,-0.59034 7.1826,-0.0945 11.2166,-0.25375 11.2166,-0.44277 0,-0.16234 -2.1081,-1.97528 -4.6847,-4.02875 -2.5766,-2.05347 -4.9638,-4.0127 -5.305,-4.35385 0,0 -1.2298,-0.99616 -4.7556,-3.6618 -4.0471,-3.0598 -8.3514,-6.66957 -8.5405,-7.16248 -0.6922,-1.8039 0.364,-3.75853 1.7017,-3.14905 0.7198,0.32797 9.4527,7.04182 14.942,11.48748 2.8565,2.31336 3.1789,2.49648 4.1255,2.34287 0.5648,-0.0917 1.3621,-0.43581 1.7717,-0.7648 1.1019,-0.8848 3.6317,-2.53721 6.796,-4.43885 1.5423,-0.92688 5.125,-3.09842 7.9615,-4.82565 2.8366,-1.72723 5.2976,-3.14042 5.4689,-3.14042 l 4.1428,-2.65657 c 0.9115,0 1.6133,1.12671 1.6086,2.58278 0,0.77114 -0.1021,1.5551 -0.2214,1.74214 -0.1193,0.18703 -1.3459,0.99206 -2.7259,1.78895 -4.1421,2.39201 -9.159,5.40386 -11.5288,6.92124 0,0 -2.0119,1.26361 -7.0617,4.26128 -1.6816,0.99439 -2.9487,1.93726 -2.9518,2.1964 -0.01,0.4383 0.5333,0.93917 4.2124,3.91823 l 1.7087,1.38362 6.9989,0.0104 c 3.0132,0.30022 11.5292,-0.63871 11.5741,2.366 0,2.517 2.0458,2.32222 -24.2866,2.3123 -12.8612,-0.005 -23.5501,-0.0767 -23.753,-0.15957 z"
                 id="path27776"
                 sodipodi:nodetypes="sssssscsssssssscccsscccscccsss" />
              <path
                 style="fill:#ffffff;fill-opacity:1;stroke-width:0.560233"
                 d="m 1952.1699,-215.97782 c -3.4378,-1.09301 -6.2048,-3.20817 -8.2605,-6.31448 -2.2528,-3.40428 -2.1576,-10.73649 0.1905,-14.66214 0,0 2.7498,-3.71314 5.5197,-4.90488 1.63,-1.31993 7.1978,-2.6301 8.7191,-2.05171 0.8912,0.33884 1.3581,1.14798 1.3581,2.35336 0,1.41764 -0.7917,1.96668 -3.1264,2.16804 -2.5177,0.21716 -4.0931,0.76469 -6.1737,2.14574 -1.3001,0.86294 -1.7891,1.43482 -2.5517,2.98374 -1.5804,3.21033 -1.4704,5.94418 0.3843,9.54681 1.0075,1.95706 1.9519,2.72963 4.5173,3.69522 l 1.9458,0.7324 h 12.9564 c 14.6756,0 14.3432,0.0471 17.0062,-2.4076 2.3107,-2.12994 2.6411,-3.04856 2.6376,-7.33315 0,-3.2295 -0.084,-3.84151 -0.6512,-4.90704 -1.3085,-2.4576 -4.0161,-3.98888 -8.0534,-4.55459 -2.9128,-0.40814 -3.5421,-0.82295 -3.5421,-2.33467 0,-1.82017 0.5289,-2.22801 2.8554,-2.20166 5.0418,0.0571 11.2622,3.88111 13.1668,8.09441 0.875,1.93571 1.1092,5.18889 0.6344,8.81099 -0.4838,3.69039 -1.089,4.85912 -3.8051,7.34788 -2.3324,2.13728 -4.7387,3.45921 -7.076,3.88737 -2.6104,0.47818 -27.1046,0.39779 -28.6515,-0.094 z"
                 id="path27754" />
              <path
                 id="path27690"
                 style="fill:#ffffff;fill-opacity:1;stroke-width:3.77954"
                 d="m 3268.1035,-248.61914 c -2.1447,0 -18.4684,4.80523 -36.2734,10.67773 -17.8057,5.87258 -43.1263,14.02814 -56.2696,18.125 -13.1425,4.09687 -30.1693,9.51323 -37.8359,12.03516 -7.6666,2.52193 -24.6933,7.91557 -37.8359,11.98633 -13.1433,4.07075 -30.1694,9.47784 -37.836,12.01562 -7.6665,2.53785 -24.6933,7.93567 -37.8359,11.99414 -13.1433,4.05848 -25.0159,8.25506 -26.3848,9.32618 -2.3713,1.85498 -3.671,21.37304 -1.4238,21.37304 8.5085,10.248 7.6214,5.75165 21.5566,13.70899 1.3965,1.15949 14.576,5.77364 29.2872,10.2539 27.631,8.41488 55.0348,16.95007 77.5292,24.146488 26.603,8.449348 70.6915,22.158203 70.6915,22.158203 0.8437,0.270345 2.5346,0.766551 3.4941,1.070312 h 109.4043 c -4.4284,-1.131983 -23.4267,-6.488893 -44.1953,-12.478515 -21.3577,-6.159296 -43.3131,-12.396426 -48.7891,-13.859376 -34.2378,-9.210132 -62.9852,-18.105442 -96.5801,-27.250002 -8.2143,-2.25362 -17.1757,-4.82748 -19.914,-5.7207 -2.7384,-0.89329 -10.8025,-3.1717 -17.9219,-5.0625 -31.8381,-8.45623 -42.4395,-12.31751 -40.8555,-14.88086 0.6538,-1.05729 7.649,-3.77343 15.545,-6.03711 7.8966,-2.26361 20.182,-5.82619 27.3007,-7.91601 25.1626,-7.38653 54.947,-16.03994 69.6993,-20.25 8.2143,-2.34423 22.103,-6.46177 30.8652,-9.1504 15.1678,-4.65411 32.343,-9.56351 74.6758,-21.3457 28.2571,-7.86451 43.8086,-13.15342 43.8086,-14.89844 0,-0.85719 -4.1045,-3.12632 -9.1231,-5.04296 -5.0186,-1.91665 -11.7704,-6.07169 -15.0039,-9.23243 -3.2335,-3.16074 -7.6339,-5.74609 -9.7793,-5.74609 z"
                 transform="matrix(0.14822799,0,0,0.14822799,1499.4689,-171.33133)" />
              <path
                 id="path27652"
                 style="fill:#ffffff;fill-opacity:1;stroke-width:3.77954"
                 d="m 3727.5879,-627.87695 c -0.8131,-0.12174 -1.6453,0.26114 -2.6817,1.12109 -1.4975,1.24288 -2.7226,3.47095 -2.7226,4.95117 0,1.48028 -2.7458,9.60326 -6.1035,18.05469 -11.1019,27.94831 -8.2772,36.24752 21.1289,62.06641 23.1158,20.29542 25.2858,25.40089 15.0293,35.34765 -6.3388,6.1481 -12.1676,9.32151 -51.959,28.30469 -28.3133,13.50737 -35.8418,19.68154 -35.8418,29.37695 0,12.14494 17.4226,22.2237 68.7012,39.74024 42.9169,14.66032 58.6035,20.97046 64.3008,25.87109 l 5.2285,4.49609 -9.8731,4.91993 c -10.5829,5.26978 -31.1656,12.68931 -53.6855,19.35547 -15.4836,4.58333 -18.0811,5.32021 -50.7774,14.34375 -12.5955,3.47606 -31.8618,10.10899 -42.8144,14.74218 -17.3038,7.32001 -19.9947,9.1021 -20.541,13.58985 -0.5546,4.57243 0.7013,5.75572 10.9531,10.32031 13.4218,5.97606 30.9699,12.03308 60.3691,20.83984 52.3187,15.67262 105.5359,34.0229 110.2852,38.0293 1.9929,1.68093 -6.5607,5.60818 -29.6387,13.61328 -31.405,10.89364 -56.097,19.92313 -76.666,28.0332 -11.4999,4.53431 -24.4871,9.58067 -28.8594,11.21485 -4.3723,1.63423 -8.8526,3.67856 -9.957,4.54297 -1.1038,0.86434 -6.9352,3.13783 -12.959,5.05468 -12.6919,4.03858 -17.811,7.90763 -14.6523,11.06641 1.1563,1.15613 12.5963,5.68256 25.4218,10.06055 28.1869,9.62118 53.51,20.59696 78.8418,34.17383 10.405,5.57653 24.0633,12.89635 30.3516,16.26562 6.289,3.36934 11.4492,6.70354 11.4492,7.40625 0,0.70269 -2.4149,1.884508 -5.3887,2.63086 -7.6382,1.917046 -20.0798,7.985931 -29.6543,14.458984 -4.4984,3.040992 -11.6698,7.874704 -15.9335,10.744141 -1.0398,0.699766 -2.9405,2.241809 -4.4512,3.392578 h 17.2012 c 10.8652,-7.416712 21.6209,-13.858071 29.5644,-17.1875 5.6318,-2.360612 18.6239,-5.737573 28.8731,-7.505859 10.2489,-1.768215 19.3651,-3.667568 20.2578,-4.21875 0.8932,-0.551236 0.2004,-2.577884 -1.543,-4.503904 -2.1216,-2.3445 -7.497,-3.90649 -16.2578,-4.72461 -13.8873,-1.29679 -19.1869,-3.48385 -56.2637,-23.1875 -24.0466,-12.77896 -54.5624,-26.59221 -75.9141,-34.36719 -7.1193,-2.59235 -12.7704,-5.4829 -12.5546,-6.42578 0.2138,-0.94295 3.3493,-2.81272 6.9687,-4.15234 3.6201,-1.33963 19.5742,-7.78014 35.4551,-14.31446 15.8809,-6.5344 40.9737,-15.99786 55.7598,-21.02929 62.2344,-21.17794 63.7226,-21.86601 63.7226,-29.46875 0,-3.74201 -1.5397,-6.67793 -4.4805,-8.54493 -10.0088,-6.35426 -57.33,-22.56303 -126.9492,-43.48047 -3.8332,-1.1518 -11.3429,-3.7647 -16.6914,-5.80859 -5.3485,-2.04388 -11.3447,-3.7168 -13.3242,-3.7168 -1.9801,0 -4.1553,-0.89495 -4.832,-1.99023 -0.6767,-1.09526 -2.862,-1.99414 -4.8535,-1.99414 -1.9923,0 -4.6781,-1.27589 -5.9747,-2.83789 -1.9388,-2.33661 -0.6598,-3.60172 7.2227,-7.12695 9.6189,-4.3019 38.4877,-13.7151 66.334,-21.62891 71.5195,-20.32578 82.9746,-24.93727 90.6289,-36.50391 5.8592,-8.85394 5.5172,-11.78144 -1.9551,-16.67773 -7.4764,-4.8984 -38.0422,-16.82028 -67.7949,-26.44141 -28.2376,-9.13149 -58.3641,-23.1497 -61.6191,-28.67383 -1.4175,-2.40986 -1.3979,-4.5238 0.072,-6.85351 2.0792,-3.29648 23.962,-14.96864 60.1172,-32.06445 21.7887,-10.30278 32.3281,-20.5254 32.3281,-31.35547 0,-9.67227 -3.2634,-13.92912 -25.1035,-32.75586 -10.4244,-8.98684 -20.4143,-19.39756 -22.1953,-23.13282 -3.5432,-7.43024 -3.8009,-6.12414 7.5801,-38.08984 3.6215,-10.17318 3.9612,-12.96223 1.8886,-15.45898 -0.9619,-1.1592 -1.7553,-1.7845 -2.5683,-1.90625 z"
                 transform="matrix(0.14822799,0,0,0.14822799,1499.4689,-171.33133)" />
              <path
                 id="path27576"
                 style="fill:#ffffff;fill-opacity:1;stroke-width:3.77954"
                 d="m 2671.4629,-1453.3867 c -2.4085,0 -30.9893,10.9234 -62.4766,23.8789 -4.9289,2.0279 -32.2599,12.7941 -60.7363,23.9258 -246.8002,96.7669 -697.9688,272.8945 -697.9688,272.8945 -7.1187,3.0186 -22.7999,9.4159 -34.8476,14.2168 l -21.9063,8.7305 v 105.0605 l 5.9747,3.2617 777.3437,305.75784 -0.6269,414.42383 -763.6543,-296.84961 c -22.2732,-8.82242 -19.9956,-19.59817 -20.3262,95.98047 -0.4154,143.8844 0.059,306.0561 0.8828,412.357423 h 97.5117 l -0.1269,-371.072263 c 1.9287,-1.92488 9.7056,0.80238 71.3242,25.01953 l 707.6484,272.72266 c 1.7001,0 4.0208,-1.73825 5.1582,-3.86329 l 1.0606,-616.28906 -4.9785,-2.57812 -727.6817,-285.49411 c -4.2941,-1.5746 -8.1174,-3.801 -8.5019,-4.9473 l 669.4726,-266.6289 c 6.571,-2.475 16.2935,-6.4795 21.6035,-8.8984 9.5988,-4.373 9.6441,-4.4399 8.0938,-11.7266 -2.5792,-12.1239 -0.8906,-32.118 3.5,-41.459 4.8837,-10.3895 16.8955,-21.616 28.4082,-26.5508 10.0817,-4.3218 11.0801,-6.3885 11.0801,-22.9551 0,-14.4391 -1.238,-18.9179 -5.2305,-18.9179 z"
                 transform="matrix(0.14822799,0,0,0.14822799,1499.4689,-171.33133)" />
            </g>
            <g
               id="g44023"
               style="fill:#ffffff;fill-opacity:1;stroke-width:0.560233"
               transform="translate(-434.6827,0.07302182)">
              <path
                 style="color:#000000;fill:#ffffff;fill-opacity:1;stroke-width:0.560233;-inkscape-stroke:none"
                 d="m 1311.9219,-248.89648 c -3.1421,0 -5.6992,2.55712 -5.6992,5.69921 0,3.1421 2.5571,5.69922 5.6992,5.69922 3.1421,0 5.7011,-2.55712 5.7011,-5.69922 0,-3.14209 -2.559,-5.69921 -5.7011,-5.69921 z m 0,1 c 2.6016,0 4.7011,2.09756 4.7011,4.69921 0,2.60166 -2.0995,4.69922 -4.7011,4.69922 -2.6017,0 -4.6992,-2.09756 -4.6992,-4.69922 0,-2.60165 2.0975,-4.69921 4.6992,-4.69921 z"
                 id="path44019" />
              <path
                 style="color:#000000;fill:#ffffff;fill-opacity:1;stroke-width:0.560233;stroke-linecap:round;-inkscape-stroke:none"
                 d="m 1309.7461,-243.59766 a 0.40000001,0.40000001 0 0 0 -0.4004,0.40039 0.40000001,0.40000001 0 0 0 0.4004,0.4004 h 4.3516 a 0.40000001,0.40000001 0 0 0 0.4003,-0.4004 0.40000001,0.40000001 0 0 0 -0.4003,-0.40039 z"
                 id="path44021" />
            </g>
          </g>
          <path
             style="fill:#ffffff;fill-opacity:1;stroke-width:0.560233"
             d="m 1049.8656,-353.93701 c -0.4937,-0.48577 -0.1976,-1.03423 1.4557,-2.69667 0.9322,-0.93738 1.695,-1.79546 1.695,-1.90684 0,-0.11138 -0.17,-0.28222 -0.3776,-0.37965 -0.2077,-0.0974 -0.7802,-0.6451 -1.2723,-1.21705 -0.964,-1.12047 -0.9642,-1.12103 -1.2656,-4.86364 -0.1471,-1.82662 0.1554,-3.89322 0.7329,-5.0072 0.2134,-0.41143 0.3879,-1.00455 0.3879,-1.31804 0,-0.31349 0.1795,-0.79448 0.3988,-1.06886 0.2194,-0.27439 0.3988,-0.5758 0.3988,-0.66981 0,-0.094 -0.59,-0.74229 -1.3111,-1.44062 -0.721,-0.69833 -1.4435,-1.51691 -1.6055,-1.81907 -0.3468,-0.64703 -0.1932,-1.31461 0.3024,-1.31461 0.1925,0 1.4366,1.05953 2.7646,2.35451 2.3598,2.30115 2.4346,2.35451 3.3034,2.35451 0.9667,0 1.5846,0.36504 1.9928,1.17725 0.2342,0.46603 0.3757,0.50163 2.8338,0.71278 1.423,0.12224 3.3089,0.28791 4.1908,0.36816 l 1.6035,0.14591 1.2536,-1.07582 c 0.6895,-0.5917 1.6512,-1.52297 2.1371,-2.0695 0.4859,-0.54653 1.3335,-1.31875 1.8835,-1.71605 0.8182,-0.591 1.0536,-0.67865 1.2945,-0.48199 0.6075,0.49613 0.3357,1.16932 -1.0368,2.56827 l -1.3312,1.35673 0.5092,0.53723 c 1.1026,1.1634 1.2039,1.88525 0.4582,3.26531 -0.426,0.78834 -0.4986,1.18095 -0.4986,2.69878 0,1.60838 0.047,1.83131 0.4986,2.35918 0.9156,1.07071 0.4643,2.02551 -1.05,2.22167 -1.807,0.23408 -2.0408,0.31154 -2.0408,0.67603 0,0.19387 1.1628,1.45452 2.5922,2.81022 1.5353,1.45608 2.5923,2.61048 2.5923,2.83103 0,0.44308 -0.3647,0.8433 -0.7685,0.8433 -0.1595,0 -1.7343,-1.40037 -3.4996,-3.11194 -1.7653,-1.71156 -3.4149,-3.21743 -3.6657,-3.34638 -0.3588,-0.18443 -1.027,-0.16934 -3.1312,0.0707 -1.4712,0.16783 -3.0157,0.30564 -3.4323,0.30624 -1.7999,0.003 -1.904,0.071 -5.8752,3.86117 -1.2795,1.22112 -2.4505,2.22022 -2.6023,2.22022 -0.1518,0 -0.3837,-0.10595 -0.5153,-0.23545 z m 6.3159,-7.42929 c 0.37,-0.22194 1.4325,-1.13948 2.3612,-2.03898 1.508,-1.46061 1.6648,-1.67911 1.4664,-2.04385 -0.1222,-0.22462 -0.3996,-0.50182 -0.6164,-0.61601 -0.3233,-0.17027 -0.3967,-0.14461 -0.408,0.14266 -0.067,1.70752 -0.2469,2.01805 -1.1694,2.01805 -1.075,0 -1.2097,-0.31414 -1.2097,-2.82119 0,-1.87619 -0.042,-2.11005 -0.4643,-2.59325 -0.3671,-0.41989 -0.6489,-0.53516 -1.346,-0.55052 l -0.8817,-0.0194 -0.054,4.21364 c -0.03,2.31751 -0.01,4.3262 0.044,4.46376 0.1517,0.38882 1.5279,0.29526 2.2783,-0.15489 z m 7.0945,-0.59197 c 0.2315,-0.22065 -1.2271,-1.74995 -1.669,-1.74995 -0.3246,0 -2.2097,1.73108 -2.2097,2.02907 0,0.22901 3.6189,-0.0314 3.8787,-0.27912 z m 5.6068,-0.38768 c 0.238,-0.19441 0.2866,-0.67759 0.2418,-2.40507 l -0.056,-2.16178 -0.6979,-0.37848 c -0.3839,-0.20817 -0.8922,-0.555 -1.1297,-0.77074 -0.2615,-0.23768 -0.5772,-0.34681 -0.801,-0.27693 -0.2031,0.0634 -1.0856,0.82529 -1.9611,1.69302 l -1.5919,1.57769 1.6467,1.59006 1.6467,1.59006 1.2023,-0.10728 c 0.6612,-0.059 1.3363,-0.21675 1.5002,-0.35055 z m -5.8814,-5.21822 c 0.6499,-0.60996 1.1816,-1.17792 1.1816,-1.26213 0,-0.0842 -0.1741,-0.20751 -0.387,-0.27399 -0.6141,-0.19178 -5.0809,-0.4601 -5.2444,-0.31502 -0.081,0.0721 -0.01,0.32845 0.1645,0.56964 0.3906,0.54878 2.6247,2.39052 2.8998,2.39052 0.1121,0 0.7356,-0.49906 1.3855,-1.10902 z m 6.5656,-1.92064 c 0,-0.38362 -0.3865,-0.59268 -0.6381,-0.34514 -0.1125,0.11069 -0.1442,0.29725 -0.071,0.41457 0.1955,0.31119 0.7087,0.26091 0.7087,-0.0694 z"
             id="path7119"
             sodipodi:nodetypes="sssssssssssssssssscssssscsssssssssssscsssscsssssssscccccsssssscsssscccssssssscsscsccc" />
        </g>
        <path
           id="rect36487"
           style="fill:#c1c2c2;stroke-width:1"
           d="m 620.19197,-191.93096 h 12.43059 c 1.96909,0 3.55431,1.58524 3.55431,3.55431 v 1.00195 c 0,1.96907 -1.58522,3.55432 -3.55431,3.55432 h -12.43059 c -1.96908,0 -3.55431,-1.58525 -3.55431,-3.55432 v -1.00195 c 0,-1.96907 1.58523,-3.55431 3.55431,-3.55431 z" />
        <g
           id="g46145"
           style="fill:#c0c4c5;fill-opacity:1;stroke-width:0.560233"
           transform="matrix(1.7849755,0,0,1.7849755,-909.1093,305.82223)">
          <path
             id="rect37556"
             d="m 898.28732,-310.45212 h 6.96401 c 1.10315,0 1.99124,0.8881 1.99124,1.99124 v 0.56132 c 0,1.10314 -0.88809,1.99124 -1.99124,1.99124 h -6.96401 c -1.10314,0 -1.99124,-0.8881 -1.99124,-1.99124 v -0.56132 c 0,-1.10314 0.8881,-1.99124 1.99124,-1.99124 z"
             style="stroke-width:0.560233" />
          <path
             id="rect37558"
             d="m 898.28732,-320.9855 h 6.96401 c 1.10315,0 1.99124,0.88809 1.99124,1.99124 v 0.56131 c 0,1.10315 -0.88809,1.99124 -1.99124,1.99124 h -6.96401 c -1.10314,0 -1.99124,-0.88809 -1.99124,-1.99124 v -0.56131 c 0,-1.10315 0.8881,-1.99124 1.99124,-1.99124 z"
             style="stroke-width:0.560233" />
          <path
             id="rect37560"
             d="m 898.28732,-332.13849 h 6.96401 c 1.10315,0 1.99124,0.88809 1.99124,1.99124 v 0.56132 c 0,1.10314 -0.88809,1.99124 -1.99124,1.99124 h -6.96401 c -1.10314,0 -1.99124,-0.8881 -1.99124,-1.99124 v -0.56132 c 0,-1.10315 0.8881,-1.99124 1.99124,-1.99124 z"
             style="stroke-width:0.560233" />
          <path
             id="rect37562"
             d="m 870.53903,-310.45212 h 6.96401 c 1.10315,0 1.99124,0.8881 1.99124,1.99124 v 0.56132 c 0,1.10314 -0.88809,1.99124 -1.99124,1.99124 h -6.96401 c -1.10315,0 -1.99124,-0.8881 -1.99124,-1.99124 v -0.56132 c 0,-1.10314 0.88809,-1.99124 1.99124,-1.99124 z"
             style="stroke-width:0.560233" />
          <path
             id="rect37564"
             d="m 870.53903,-320.9855 h 6.96401 c 1.10315,0 1.99124,0.88809 1.99124,1.99124 v 0.56131 c 0,1.10315 -0.88809,1.99124 -1.99124,1.99124 h -6.96401 c -1.10315,0 -1.99124,-0.88809 -1.99124,-1.99124 v -0.56131 c 0,-1.10315 0.88809,-1.99124 1.99124,-1.99124 z"
             style="stroke-width:0.560233" />
          <path
             id="rect37566"
             d="m 870.53903,-332.13849 h 6.96401 c 1.10315,0 1.99124,0.88809 1.99124,1.99124 v 0.56132 c 0,1.10314 -0.88809,1.99124 -1.99124,1.99124 h -6.96401 c -1.10315,0 -1.99124,-0.8881 -1.99124,-1.99124 v -0.56132 c 0,-1.10315 0.88809,-1.99124 1.99124,-1.99124 z"
             style="stroke-width:0.560233" />
          <g
             id="g43026"
             transform="translate(366.80946,-0.41307376)"
             style="fill:#c0c4c5;fill-opacity:1;stroke-width:0.560233">
            <path
               id="path38573"
               d="m 547.40576,-372.65207 a 7,7 0 0 1 -7,7 7,7 0 0 1 -7,-7 7,7 0 0 1 7,-7 7,7 0 0 1 7,7 z"
               style="stroke-width:0.560233" />
            <path
               id="circle38757"
               d="m 509.14233,-372.65207 a 7,7 0 0 1 -7,7 7,7 0 0 1 -7,-7 7,7 0 0 1 7,-7 7,7 0 0 1 7,7 z"
               style="stroke-width:0.560233" />
            <path
               id="circle38759"
               d="m 461.24002,-372.65207 a 7,7 0 0 1 -7,7 7,7 0 0 1 -7,-7 7,7 0 0 1 7,-7 7,7 0 0 1 7,7 z"
               style="stroke-width:0.560233" />
            <path
               id="circle38761"
               d="m 422.68451,-372.65207 a 7,7 0 0 1 -7,7 7,7 0 0 1 -7,-7 7,7 0 0 1 7,-7 7,7 0 0 1 7,7 z"
               style="stroke-width:0.560233" />
            <path
               id="circle38763"
               d="m 595.30804,-372.65207 a 7,7 0 0 1 -7,7 7,7 0 0 1 -7,-7 7,7 0 0 1 7,-7 7,7 0 0 1 7,7 z"
               style="stroke-width:0.560233" />
            <path
               id="circle38765"
               d="m 634.44775,-372.65207 a 7,7 0 0 1 -7,7 7,7 0 0 1 -7,-7 7,7 0 0 1 7,-7 7,7 0 0 1 7,7 z"
               style="stroke-width:0.560233" />
            <path
               id="circle38767"
               d="m 682.64215,-372.65207 a 7,7 0 0 1 -7,7 7,7 0 0 1 -7,-7 7,7 0 0 1 7,-7 7,7 0 0 1 7,7 z"
               style="stroke-width:0.560233" />
            <path
               id="circle38769"
               d="m 720.90558,-372.65207 a 7,7 0 0 1 -7,7 7,7 0 0 1 -7,-7 7,7 0 0 1 7,-7 7,7 0 0 1 7,7 z"
               style="stroke-width:0.560233" />
            <path
               id="circle38853"
               d="m 461.24002,-372.65207 a 7,7 0 0 1 -7,7 7,7 0 0 1 -7,-7 7,7 0 0 1 7,-7 7,7 0 0 1 7,7 z"
               style="stroke-width:0.560233" />
            <path
               id="circle38883"
               d="m 587.83319,-313.41571 a 5.5,5.5 0 0 1 -5.5,5.5 5.5,5.5 0 0 1 -5.5,-5.5 5.5,5.5 0 0 1 5.5,-5.5 5.5,5.5 0 0 1 5.5,5.5 z"
               style="stroke-width:0.560233" />
            <path
               id="circle38987"
               d="m 639.05432,-318.37259 a 5.5,5.5 0 0 1 -5.5,5.5 5.5,5.5 0 0 1 -5.5,-5.5 5.5,5.5 0 0 1 5.5,-5.5 5.5,5.5 0 0 1 5.5,5.5 z"
               style="stroke-width:0.560233" />
            <path
               id="circle38989"
               d="m 674.57867,-313.41571 a 5.5,5.5 0 0 1 -5.5,5.5 5.5,5.5 0 0 1 -5.5,-5.5 5.5,5.5 0 0 1 5.5,-5.5 5.5,5.5 0 0 1 5.5,5.5 z"
               style="stroke-width:0.560233" />
            <path
               id="circle38991"
               d="m 553.13501,-318.37259 a 5.5,5.5 0 0 1 -5.5,5.5 5.5,5.5 0 0 1 -5.5,-5.5 5.5,5.5 0 0 1 5.5,-5.5 5.5,5.5 0 0 1 5.5,5.5 z"
               style="stroke-width:0.560233" />
            <path
               id="circle38993"
               d="m 500.67465,-313.41571 a 5.5,5.5 0 0 1 -5.5,5.5 5.5,5.5 0 0 1 -5.5,-5.5 5.5,5.5 0 0 1 5.5,-5.5 5.5,5.5 0 0 1 5.5,5.5 z"
               style="stroke-width:0.560233" />
            <path
               id="circle38995"
               d="m 465.97647,-318.37259 a 5.5,5.5 0 0 1 -5.5,5.5 5.5,5.5 0 0 1 -5.5,-5.5 5.5,5.5 0 0 1 5.5,-5.5 5.5,5.5 0 0 1 5.5,5.5 z"
               style="stroke-width:0.560233" />
            <path
               id="circle38997"
               d="m 466.38956,-211.38649 a 5.5,5.5 0 0 1 -5.5,5.5 5.5,5.5 0 0 1 -5.5,-5.5 5.5,5.5 0 0 1 5.5,-5.5 5.5,5.5 0 0 1 5.5,5.5 z"
               style="stroke-width:0.560233" />
            <path
               id="circle38999"
               d="m 501.91391,-215.9303 a 5.5,5.5 0 0 1 -5.5,5.5 5.5,5.5 0 0 1 -5.5,-5.5 5.5,5.5 0 0 1 5.5,-5.5 5.5,5.5 0 0 1 5.5,5.5 z"
               style="stroke-width:0.560233" />
            <path
               id="circle39001"
               d="m 552.72198,-210.97342 a 5.5,5.5 0 0 1 -5.5,5.5 5.5,5.5 0 0 1 -5.5,-5.5 5.5,5.5 0 0 1 5.5,-5.5 5.5,5.5 0 0 1 5.5,5.5 z"
               style="stroke-width:0.560233" />
            <path
               id="circle39003"
               d="m 587.83325,-215.9303 a 5.5,5.5 0 0 1 -5.5,5.5 5.5,5.5 0 0 1 -5.5,-5.5 5.5,5.5 0 0 1 5.5,-5.5 5.5,5.5 0 0 1 5.5,5.5 z"
               style="stroke-width:0.560233" />
            <path
               id="circle39005"
               d="m 638.6413,-210.97342 a 5.5,5.5 0 0 1 -5.5,5.5 5.5,5.5 0 0 1 -5.5,-5.5 5.5,5.5 0 0 1 5.5,-5.5 5.5,5.5 0 0 1 5.5,5.5 z"
               style="stroke-width:0.560233" />
            <path
               id="circle39007"
               d="m 674.57874,-216.75645 a 5.5,5.5 0 0 1 -5.5,5.5 5.5,5.5 0 0 1 -5.5,-5.5 5.5,5.5 0 0 1 5.5,-5.5 5.5,5.5 0 0 1 5.5,5.5 z"
               style="stroke-width:0.560233" />
            <path
               id="circle39009"
               d="m 438.66185,-343.08258 a 3.7,3.7 0 0 1 -3.7,3.7 3.7,3.7 0 0 1 -3.7,-3.7 3.7,3.7 0 0 1 3.7,-3.7 3.7,3.7 0 0 1 3.7,3.7 z"
               style="stroke-width:0.560233" />
            <path
               id="circle39317"
               d="m 427.85463,-342.7905 a 3.7,3.7 0 0 1 -3.7,3.7 3.7,3.7 0 0 1 -3.7,-3.7 3.7,3.7 0 0 1 3.7,-3.7 3.7,3.7 0 0 1 3.7,3.7 z"
               style="stroke-width:0.560233" />
            <path
               id="circle39319"
               d="m 513.84127,-343.08258 a 3.7,3.7 0 0 1 -3.7,3.7 3.7,3.7 0 0 1 -3.7,-3.7 3.7,3.7 0 0 1 3.7,-3.7 3.7,3.7 0 0 1 3.7,3.7 z"
               style="stroke-width:0.560233" />
            <path
               id="circle39321"
               d="m 524.99425,-343.08258 a 3.7,3.7 0 0 1 -3.7,3.7 3.7,3.7 0 0 1 -3.7,-3.7 3.7,3.7 0 0 1 3.7,-3.7 3.7,3.7 0 0 1 3.7,3.7 z"
               style="stroke-width:0.560233" />
            <path
               id="circle39323"
               d="m 601.41289,-342.66949 a 3.7,3.7 0 0 1 -3.7,3.7 3.7,3.7 0 0 1 -3.7,-3.7 3.7,3.7 0 0 1 3.7,-3.7 3.7,3.7 0 0 1 3.7,3.7 z"
               style="stroke-width:0.560233" />
            <path
               id="circle39325"
               d="m 611.32665,-343.08258 a 3.7,3.7 0 0 1 -3.7,3.7 3.7,3.7 0 0 1 -3.7,-3.7 3.7,3.7 0 0 1 3.7,-3.7 3.7,3.7 0 0 1 3.7,3.7 z"
               style="stroke-width:0.560233" />
            <path
               id="circle39327"
               d="m 575.80229,-334.82111 a 3.7,3.7 0 0 1 -3.7,3.7 3.7,3.7 0 0 1 -3.7,-3.7 3.7,3.7 0 0 1 3.7,-3.7 3.7,3.7 0 0 1 3.7,3.7 z"
               style="stroke-width:0.560233" />
            <path
               id="circle39329"
               d="m 662.13469,-334.82111 a 3.7,3.7 0 0 1 -3.7,3.7 3.7,3.7 0 0 1 -3.7,-3.7 3.7,3.7 0 0 1 3.7,-3.7 3.7,3.7 0 0 1 3.7,3.7 z"
               style="stroke-width:0.560233" />
            <path
               id="circle39331"
               d="m 687.74529,-343.49567 a 3.7,3.7 0 0 1 -3.7,3.7 3.7,3.7 0 0 1 -3.7,-3.7 3.7,3.7 0 0 1 3.7,-3.7 3.7,3.7 0 0 1 3.7,3.7 z"
               style="stroke-width:0.560233" />
            <path
               id="circle39333"
               d="m 698.48522,-343.49567 a 3.7,3.7 0 0 1 -3.7,3.7 3.7,3.7 0 0 1 -3.7,-3.7 3.7,3.7 0 0 1 3.7,-3.7 3.7,3.7 0 0 1 3.7,3.7 z"
               style="stroke-width:0.560233" />
            <path
               id="circle39335"
               d="m 419.66045,-297.64447 a 3.7,3.7 0 0 1 -3.7,3.7 3.7,3.7 0 0 1 -3.7,-3.7 3.7,3.7 0 0 1 3.7,-3.7 3.7,3.7 0 0 1 3.7,3.7 z"
               style="stroke-width:0.560233" />
            <path
               id="circle39339"
               d="m 419.66045,-242.70567 a 3.7,3.7 0 0 1 -3.7,3.7 3.7,3.7 0 0 1 -3.7,-3.7 3.7,3.7 0 0 1 3.7,-3.7 3.7,3.7 0 0 1 3.7,3.7 z"
               style="stroke-width:0.560233" />
            <path
               id="circle39341"
               d="m 420.07354,-206.35518 a 3.7,3.7 0 0 1 -3.7,3.7 3.7,3.7 0 0 1 -3.7,-3.7 3.7,3.7 0 0 1 3.7,-3.7 3.7,3.7 0 0 1 3.7,3.7 z"
               style="stroke-width:0.560233" />
            <path
               id="circle39343"
               d="m 420.07354,-193.96297 a 3.7,3.7 0 0 1 -3.7,3.7 3.7,3.7 0 0 1 -3.7,-3.7 3.7,3.7 0 0 1 3.7,-3.7 3.7,3.7 0 0 1 3.7,3.7 z"
               style="stroke-width:0.560233" />
            <path
               id="circle39345"
               d="m 475.01235,-194.37604 a 3.7,3.7 0 0 1 -3.7,3.7 3.7,3.7 0 0 1 -3.7,-3.7 3.7,3.7 0 0 1 3.7,-3.7 3.7,3.7 0 0 1 3.7,3.7 z"
               style="stroke-width:0.560233" />
            <path
               id="circle39347"
               d="m 488.64379,-193.96297 a 3.7,3.7 0 0 1 -3.7,3.7 3.7,3.7 0 0 1 -3.7,-3.7 3.7,3.7 0 0 1 3.7,-3.7 3.7,3.7 0 0 1 3.7,3.7 z"
               style="stroke-width:0.560233" />
            <path
               id="circle39349"
               d="m 560.93169,-194.37604 a 3.7,3.7 0 0 1 -3.7,3.7 3.7,3.7 0 0 1 -3.7,-3.7 3.7,3.7 0 0 1 3.7,-3.7 3.7,3.7 0 0 1 3.7,3.7 z"
               style="stroke-width:0.560233" />
            <path
               id="circle39351"
               d="m 575.80236,-194.37604 a 3.7,3.7 0 0 1 -3.7,3.7 3.7,3.7 0 0 1 -3.7,-3.7 3.7,3.7 0 0 1 3.7,-3.7 3.7,3.7 0 0 1 3.7,3.7 z"
               style="stroke-width:0.560233" />
            <path
               id="circle39353"
               d="m 575.80236,-194.37604 a 3.7,3.7 0 0 1 -3.7,3.7 3.7,3.7 0 0 1 -3.7,-3.7 3.7,3.7 0 0 1 3.7,-3.7 3.7,3.7 0 0 1 3.7,3.7 z"
               style="stroke-width:0.560233" />
            <path
               id="circle39355"
               d="m 647.67717,-194.37604 a 3.7,3.7 0 0 1 -3.7,3.7 3.7,3.7 0 0 1 -3.7,-3.7 3.7,3.7 0 0 1 3.7,-3.7 3.7,3.7 0 0 1 3.7,3.7 z"
               style="stroke-width:0.560233" />
            <path
               id="circle39357"
               d="m 662.54784,-194.78911 a 3.7,3.7 0 0 1 -3.7,3.7 3.7,3.7 0 0 1 -3.7,-3.7 3.7,3.7 0 0 1 3.7,-3.7 3.7,3.7 0 0 1 3.7,3.7 z"
               style="stroke-width:0.560233" />
            <path
               id="circle39359"
               d="m 717.0736,-193.96297 a 3.7,3.7 0 0 1 -3.7,3.7 3.7,3.7 0 0 1 -3.7,-3.7 3.7,3.7 0 0 1 3.7,-3.7 3.7,3.7 0 0 1 3.7,3.7 z"
               style="stroke-width:0.560233" />
            <path
               id="circle39361"
               d="m 717.48668,-206.76825 a 3.7,3.7 0 0 1 -3.7,3.7 3.7,3.7 0 0 1 -3.7,-3.7 3.7,3.7 0 0 1 3.7,-3.7 3.7,3.7 0 0 1 3.7,3.7 z"
               style="stroke-width:0.560233" />
            <path
               id="circle39363"
               d="m 717.48668,-243.11874 a 3.7,3.7 0 0 1 -3.7,3.7 3.7,3.7 0 0 1 -3.7,-3.7 3.7,3.7 0 0 1 3.7,-3.7 3.7,3.7 0 0 1 3.7,3.7 z"
               style="stroke-width:0.560233" />
            <path
               id="circle39455"
               d="m 489.34447,-335.11319 a 3.7,3.7 0 0 1 -3.7,3.7 3.7,3.7 0 0 1 -3.7,-3.7 3.7,3.7 0 0 1 3.7,-3.7 3.7,3.7 0 0 1 3.7,3.7 z"
               style="stroke-width:0.560233" />
            <path
               id="rect39479"
               d="m 616.15073,-346.82806 h 4.86292 c 0.67507,0 1.21854,0.54346 1.21854,1.21853 v 4.86293 c 0,0.67507 -0.54347,1.21854 -1.21854,1.21854 h -4.86292 c -0.67507,0 -1.21854,-0.54347 -1.21854,-1.21854 v -4.86293 c 0,-0.67507 0.54347,-1.21853 1.21854,-1.21853 z"
               style="stroke-width:0.560233" />
            <path
               id="rect39663"
               d="m 702.60855,-346.82806 h 4.86293 c 0.67507,0 1.21853,0.54346 1.21853,1.21853 v 4.86293 c 0,0.67507 -0.54346,1.21854 -1.21853,1.21854 h -4.86293 c -0.67507,0 -1.21854,-0.54347 -1.21854,-1.21854 v -4.86293 c 0,-0.67507 0.54347,-1.21853 1.21854,-1.21853 z"
               style="stroke-width:0.560233" />
            <path
               id="rect39665"
               d="m 529.98502,-346.82806 h 4.86292 c 0.67507,0 1.21854,0.54346 1.21854,1.21853 v 4.86293 c 0,0.67507 -0.54347,1.21854 -1.21854,1.21854 h -4.86292 c -0.67507,0 -1.21854,-0.54347 -1.21854,-1.21854 v -4.86293 c 0,-0.67507 0.54347,-1.21853 1.21854,-1.21853 z"
               style="stroke-width:0.560233" />
            <path
               id="rect39667"
               d="m 443.23514,-346.41501 h 4.86293 c 0.67506,0 1.21853,0.54347 1.21853,1.21854 v 4.86293 c 0,0.67506 -0.54347,1.21853 -1.21853,1.21853 h -4.86293 c -0.67507,0 -1.21854,-0.54347 -1.21854,-1.21853 v -4.86293 c 0,-0.67507 0.54347,-1.21854 1.21854,-1.21854 z"
               style="stroke-width:0.560233" />
            <path
               id="rect39671"
               d="m 710.90689,-297.6723 h 4.86293 c 0.67507,0 1.21853,0.54346 1.21853,1.21853 v 4.86293 c 0,0.67507 -0.54346,1.21854 -1.21853,1.21854 h -4.86293 c -0.67507,0 -1.21854,-0.54347 -1.21854,-1.21854 v -4.86293 c 0,-0.67507 0.54347,-1.21853 1.21854,-1.21853 z"
               style="stroke-width:0.560233" />
            <path
               id="rect39673"
               d="m 710.90689,-286.71902 h 4.86293 c 0.67507,0 1.21853,0.54346 1.21853,1.21853 v 4.86293 c 0,0.67507 -0.54346,1.21854 -1.21853,1.21854 h -4.86293 c -0.67507,0 -1.21854,-0.54347 -1.21854,-1.21854 v -4.86293 c 0,-0.67507 0.54347,-1.21853 1.21854,-1.21853 z"
               style="stroke-width:0.560233" />
            <path
               id="rect39675"
               d="m 710.90689,-275.76575 h 4.86293 c 0.67507,0 1.21853,0.54347 1.21853,1.21854 v 4.86293 c 0,0.67507 -0.54346,1.21853 -1.21853,1.21853 h -4.86293 c -0.67507,0 -1.21854,-0.54346 -1.21854,-1.21853 v -4.86293 c 0,-0.67507 0.54347,-1.21854 1.21854,-1.21854 z"
               style="stroke-width:0.560233" />
            <path
               id="circle39337"
               d="m 419.66045,-261.70706 a 3.7,3.7 0 0 1 -3.7,3.7 3.7,3.7 0 0 1 -3.7,-3.7 3.7,3.7 0 0 1 3.7,-3.7 3.7,3.7 0 0 1 3.7,3.7 z"
               style="stroke-width:0.560233" />
            <g
               id="g13620"
               style="stroke-width:0.560233">
              <path
                 id="rect36473"
                 style="fill:#c1c2c2;stroke-width:0.560233"
                 transform="translate(-366.80946,0.41307376)"
                 d="m 826.19577,-279.06369 h 6.96401 c 1.10315,0 1.99124,0.88809 1.99124,1.99124 v 0.56131 c 0,1.10315 -0.88809,1.99125 -1.99124,1.99125 h -6.96401 c -1.10315,0 -1.99124,-0.8881 -1.99124,-1.99125 v -0.56131 c 0,-1.10315 0.88809,-1.99124 1.99124,-1.99124 z" />
              <path
                 id="rect36475"
                 style="fill:#c1c2c2;stroke-width:0.560233"
                 transform="translate(-366.80946,0.41307376)"
                 d="m 826.19577,-257.37732 h 6.96401 c 1.10315,0 1.99124,0.88809 1.99124,1.99124 v 0.56131 c 0,1.10315 -0.88809,1.99125 -1.99124,1.99125 h -6.96401 c -1.10315,0 -1.99124,-0.8881 -1.99124,-1.99125 v -0.56131 c 0,-1.10315 0.88809,-1.99124 1.99124,-1.99124 z" />
              <path
                 id="rect36477"
                 style="fill:#c1c2c2;stroke-width:0.560233"
                 transform="translate(-366.80946,0.41307376)"
                 d="m 826.19577,-268.11725 h 6.96401 c 1.10315,0 1.99124,0.8881 1.99124,1.99124 v 0.56132 c 0,1.10314 -0.88809,1.99124 -1.99124,1.99124 h -6.96401 c -1.10315,0 -1.99124,-0.8881 -1.99124,-1.99124 v -0.56132 c 0,-1.10314 0.88809,-1.99124 1.99124,-1.99124 z" />
              <path
                 id="rect36479"
                 style="fill:#c1c2c2;stroke-width:0.560233"
                 transform="translate(-366.80946,0.41307376)"
                 d="m 826.19577,-246.22435 h 6.96401 c 1.10315,0 1.99124,0.88809 1.99124,1.99124 v 0.56131 c 0,1.10315 -0.88809,1.99125 -1.99124,1.99125 h -6.96401 c -1.10315,0 -1.99124,-0.8881 -1.99124,-1.99125 v -0.56131 c 0,-1.10315 0.88809,-1.99124 1.99124,-1.99124 z" />
              <path
                 id="rect36481"
                 style="fill:#c1c2c2;stroke-width:0.560233"
                 transform="translate(-366.80946,0.41307376)"
                 d="m 856.76315,-246.22435 h 6.96401 c 1.10315,0 1.99124,0.88809 1.99124,1.99124 v 0.56131 c 0,1.10315 -0.88809,1.99125 -1.99124,1.99125 h -6.96401 c -1.10314,0 -1.99124,-0.8881 -1.99124,-1.99125 v -0.56131 c 0,-1.10315 0.8881,-1.99124 1.99124,-1.99124 z" />
              <path
                 id="rect36485"
                 style="fill:#c1c2c2;stroke-width:0.560233"
                 transform="translate(-366.80946,0.41307376)"
                 d="m 856.76315,-268.32376 h 6.96401 c 1.10315,0 1.99124,0.88809 1.99124,1.99124 v 0.56131 c 0,1.10315 -0.88809,1.99124 -1.99124,1.99124 h -6.96401 c -1.10314,0 -1.99124,-0.88809 -1.99124,-1.99124 v -0.56131 c 0,-1.10315 0.8881,-1.99124 1.99124,-1.99124 z" />
              <path
                 id="rect36491"
                 style="fill:#c1c2c2;stroke-width:0.560233"
                 d="m 489.9537,-289.79999 h 6.96401 c 1.10315,0 1.99124,0.8881 1.99124,1.99124 v 0.56132 c 0,1.10314 -0.88809,1.99124 -1.99124,1.99124 h -6.96401 c -1.10314,0 -1.99124,-0.8881 -1.99124,-1.99124 v -0.56132 c 0,-1.10314 0.8881,-1.99124 1.99124,-1.99124 z" />
              <path
                 id="rect33956"
                 d="m 459.05731,-289.79999 h 6.96401 c 1.10315,0 1.99124,0.8881 1.99124,1.99124 v 0.56132 c 0,1.10314 -0.88809,1.99124 -1.99124,1.99124 h -6.96401 c -1.10315,0 -1.99124,-0.8881 -1.99124,-1.99124 v -0.56132 c 0,-1.10314 0.88809,-1.99124 1.99124,-1.99124 z"
                 style="stroke-width:0.560233" />
              <path
                 id="rect36360"
                 d="m 489.62476,-256.66632 h 6.964 c 1.10315,0 1.99124,0.88809 1.99124,1.99124 v 0.56131 c 0,1.10315 -0.88809,1.99124 -1.99124,1.99124 h -6.964 c -1.10315,0 -1.99125,-0.88809 -1.99125,-1.99124 v -0.56131 c 0,-1.10315 0.8881,-1.99124 1.99125,-1.99124 z"
                 style="stroke-width:0.560233" />
            </g>
          </g>
        </g>
        <path
           id="rect32331"
           style="fill:#383838;stroke-width:1"
           d="m 583.81648,-214.13959 h 31.24895 c 1.5978,0 2.88411,1.28631 2.88411,2.88409 v 86.51406 c 0,1.59778 -1.28631,2.88409 -2.88411,2.88409 h -31.24895 c -1.59779,0 -2.88409,-1.28631 -2.88409,-2.88409 v -86.51406 c 0,-1.59778 1.2863,-2.88409 2.88409,-2.88409 z" />
        <path
           id="rect32511"
           style="fill:#a9a572;stroke-width:1"
           d="m 607.34314,-192.01577 h 3.87715 c 0.94801,0 1.71108,0.7631 1.71108,1.71099 v 3.74683 c 0,0.94789 -0.76307,1.711 -1.71108,1.711 h -3.87715 c -0.94783,0 -1.71089,-0.76311 -1.71089,-1.711 v -3.74683 c 0,-0.94789 0.76306,-1.71099 1.71089,-1.71099 z" />
        <path
           id="rect32637"
           style="fill:#a9a572;stroke-width:1"
           d="m 607.34314,-211.73008 h 3.87715 c 0.94801,0 1.71108,0.7631 1.71108,1.711 v 3.74681 c 0,0.94792 -0.76307,1.711 -1.71108,1.711 h -3.87715 c -0.94783,0 -1.71089,-0.76308 -1.71089,-1.711 v -3.74681 c 0,-0.9479 0.76306,-1.711 1.71089,-1.711 z" />
        <path
           id="rect32639"
           style="fill:#a9a572;stroke-width:1"
           d="m 587.66165,-211.73008 h 3.87715 c 0.94782,0 1.71089,0.7631 1.71089,1.711 v 3.74681 c 0,0.94792 -0.76307,1.711 -1.71089,1.711 h -3.87715 c -0.94801,0 -1.71109,-0.76308 -1.71109,-1.711 v -3.74681 c 0,-0.9479 0.76308,-1.711 1.71109,-1.711 z" />
        <path
           id="rect32641"
           style="fill:#a9a572;stroke-width:1"
           d="m 587.66165,-132.8731 h 3.87715 c 0.94782,0 1.71089,0.76313 1.71089,1.71101 v 3.74682 c 0,0.9479 -0.76307,1.71099 -1.71089,1.71099 h -3.87715 c -0.94801,0 -1.71109,-0.76309 -1.71109,-1.71099 v -3.74682 c 0,-0.94788 0.76308,-1.71101 1.71109,-1.71101 z" />
        <path
           id="rect32643"
           style="fill:#a9a572;stroke-width:1"
           d="m 607.34314,-132.8731 h 3.87715 c 0.94801,0 1.71108,0.76313 1.71108,1.71101 v 3.74682 c 0,0.9479 -0.76307,1.71099 -1.71108,1.71099 h -3.87715 c -0.94783,0 -1.71089,-0.76309 -1.71089,-1.71099 v -3.74682 c 0,-0.94788 0.76306,-1.71101 1.71089,-1.71101 z" />
        <path
           id="rect32645"
           style="fill:#a9a572;stroke-width:1"
           d="m 607.34314,-172.30151 h 3.87715 c 0.94801,0 1.71108,0.76311 1.71108,1.711 v 3.74684 c 0,0.94789 -0.76307,1.71098 -1.71108,1.71098 h -3.87715 c -0.94783,0 -1.71089,-0.76309 -1.71089,-1.71098 v -3.74684 c 0,-0.94789 0.76306,-1.711 1.71089,-1.711 z" />
        <path
           id="rect32647"
           style="fill:#a9a572;stroke-width:1"
           d="m 607.34314,-152.5873 h 3.87715 c 0.94801,0 1.71108,0.76311 1.71108,1.71099 v 3.74683 c 0,0.94789 -0.76307,1.711 -1.71108,1.711 h -3.87715 c -0.94783,0 -1.71089,-0.76311 -1.71089,-1.711 v -3.74683 c 0,-0.94788 0.76306,-1.71099 1.71089,-1.71099 z" />
        <path
           id="rect32649"
           style="fill:#a9a572;stroke-width:1"
           d="m 587.66165,-192.01577 h 3.87715 c 0.94782,0 1.71089,0.7631 1.71089,1.71099 v 3.74683 c 0,0.94789 -0.76307,1.711 -1.71089,1.711 h -3.87715 c -0.94801,0 -1.71109,-0.76311 -1.71109,-1.711 v -3.74683 c 0,-0.94789 0.76308,-1.71099 1.71109,-1.71099 z" />
        <path
           id="rect32651"
           style="fill:#a9a572;stroke-width:1"
           d="m 587.66165,-152.5873 h 3.87715 c 0.94782,0 1.71089,0.76311 1.71089,1.71099 v 3.74683 c 0,0.94789 -0.76307,1.711 -1.71089,1.711 h -3.87715 c -0.94801,0 -1.71109,-0.76311 -1.71109,-1.711 v -3.74683 c 0,-0.94788 0.76308,-1.71099 1.71109,-1.71099 z" />
        <path
           id="rect33435"
           style="fill:#a9a572;stroke-width:1"
           d="m 587.66165,-172.30151 h 3.87715 c 0.94782,0 1.71089,0.76311 1.71089,1.711 v 3.74684 c 0,0.94789 -0.76307,1.71098 -1.71089,1.71098 h -3.87715 c -0.94801,0 -1.71109,-0.76309 -1.71109,-1.71098 v -3.74684 c 0,-0.94789 0.76308,-1.711 1.71109,-1.711 z" />
        <path
           id="rect32331-2"
           style="fill:#383838;stroke-width:1"
           d="m 660.28467,-292.14184 h 31.2489 c 1.59778,0 2.88409,1.2863 2.88409,2.88409 v 49.4969 c 0,1.59779 -1.28631,2.88411 -2.88409,2.88411 h -31.2489 c -1.59781,0 -2.88412,-1.28632 -2.88412,-2.88411 v -49.4969 c 0,-1.59779 1.28631,-2.88409 2.88412,-2.88409 z" />
      </g>
    </g>
    <text
       xml:space="preserve"
       style="font-style:normal;font-variant:normal;font-weight:normal;font-stretch:normal;font-size:28.2222px;line-height:1.25;font-family:Auza;-inkscape-font-specification:Auza;text-align:start;text-anchor:start;stroke-width:0.264583"
       x="590.15277"
       y="-535.87335"
       id="text32327"><tspan
         sodipodi:role="line"
         style="font-style:normal;font-variant:normal;font-weight:normal;font-stretch:normal;font-size:28.2222px;font-family:Auza;-inkscape-font-specification:Auza;text-align:start;text-anchor:start;stroke-width:0.264583"
         x="590.15277"
         y="-535.87335"
         id="tspan5740">USB PORT </tspan><tspan
         sodipodi:role="line"
         style="font-style:normal;font-variant:normal;font-weight:normal;font-stretch:normal;font-size:28.2222px;font-family:Auza;-inkscape-font-specification:Auza;text-align:start;text-anchor:start;stroke-width:0.264583"
         x="590.15277"
         y="-500.59561"
         id="tspan6160">(Micro B) </tspan></text>
    <rect
       style="fill:url(#linearGradient30601);fill-opacity:1;stroke:none;stroke-width:0.663095;stroke-miterlimit:4;stroke-dasharray:none;stroke-dashoffset:0;stroke-opacity:1"
       id="rect30599"
       width="635.29724"
       height="181.23137"
       x="438.29294"
       y="-191.83733"
       rx="0"
       ry="0" />
    <path
       style="color:#000000;fill:none;stroke:#000000;stroke-width:1;stroke-miterlimit:4;stroke-dasharray:none;stroke-opacity:1"
       d="m 781.44626,-623.62732 c -14.76073,10.4265 -23.12737,23.02638 -27.5332,36.38867 -4.40583,13.36229 -4.99765,27.38593 -4.9375,41.24609 l 9,-0.0391 c -0.0589,-13.56181 0.59549,-26.59422 4.48437,-38.38867 3.88888,-11.79446 10.86543,-22.45265 24.17969,-31.85742 z"
       id="path4978" />
    <g
       id="g4943"
       transform="translate(1.7525233,20.111028)">
      <rect
         style="fill:#f1f1f1;fill-opacity:1;stroke:#000000;stroke-width:1;stroke-miterlimit:4;stroke-dasharray:none"
         id="rect3628"
         width="64.299164"
         height="89.962868"
         x="-784.19232"
         y="478.9046"
         ry="0"
         transform="scale(-1)" />
      <rect
         style="fill:#d8d8d6;fill-opacity:1;stroke:#000000;stroke-width:1;stroke-miterlimit:4;stroke-dasharray:none;stroke-opacity:1"
         id="rect3546"
         width="41.785774"
         height="30.961273"
         x="-772.93561"
         y="447.9433"
         ry="0"
         transform="scale(-1)" />
      <g
         id="g3761"
         transform="rotate(180,554.2676,-528.29898)">
        <rect
           style="fill:none;fill-opacity:1;stroke:#000000;stroke-width:0.4"
           id="rect3670"
           width="2.9208722"
           height="20.446106"
           x="340.28162"
           y="-604.38116" />
        <rect
           style="fill:none;fill-opacity:1;stroke:#000000;stroke-width:0.4"
           id="rect3752"
           width="2.9208722"
           height="20.446106"
           x="369.78244"
           y="-604.38116" />
      </g>
      <path
         d="m 757.83546,-502.72442 -6.01075,10.60442 -6.16418,-10.52787 4.45415,-0.0283 0.0638,-25.69853 c -0.3618,0.20213 -0.74225,0.39916 -1.13368,0.60167 -2.53831,1.31309 -5.73942,2.96967 -5.85806,10.2712 h 3.12454 v 8.99655 l -8.99616,-5e-5 v -8.99653 l 2.78697,3e-5 c 0.1223,-9.17233 4.25751,-11.31185 7.53293,-13.00616 1.18349,-0.61224 2.20145,-1.13918 2.55407,-2.07987 l 0.033,-13.43239 a 5.3106258,5.310629 0 0 1 -3.91073,-5.13375 5.3095272,5.3095304 0 0 1 5.32159,-5.32132 5.3095272,5.3095304 0 0 1 5.32142,5.32143 5.3109918,5.310995 0 0 1 -3.4618,4.99023 l -0.0208,8.34915 c 1.05203,0.59063 2.0579,0.99016 2.98029,1.35669 4.07994,1.62216 6.8493,2.72468 6.90497,12.23023 a 5.2659527,5.2659559 0 0 1 3.81919,5.07845 c 0,2.90964 -2.37354,5.2832 -5.28317,5.2832 -2.9096,0 -5.28315,-2.37356 -5.28315,-5.28317 0,-2.37576 1.5416,-4.35346 3.66321,-5.03126 -0.0425,-7.46849 -2.02862,-8.25979 -4.95361,-9.42241 -0.58954,-0.23472 -1.20948,-0.48042 -1.85615,-0.77411 l -0.0784,31.68036 z"
         id="path3212-9"
         style="fill:#535353;fill-opacity:1;stroke-width:3.43158" />
    </g>
  </g>
</svg>
